<svg width="50" height="50" viewBox="0 0 50 50" fill="none" xmlns="http://www.w3.org/2000/svg">
<rect width="50" height="50" rx="25" fill="white"/>
<path d="M25 13C21.5107 13 18.6719 15.8388 18.6719 19.3281C18.6719 22.8175 21.5107 25.6562 25 25.6562C28.4893 25.6562 31.3281 22.8175 31.3281 19.3281C31.3281 15.8388 28.4893 13 25 13Z" fill="#4D4C52"/>
<path d="M32.8734 29.7904C31.1409 28.0313 28.8442 27.0625 26.4062 27.0625H23.5938C21.1559 27.0625 18.8591 28.0313 17.1266 29.7904C15.4026 31.5409 14.4531 33.8515 14.4531 36.2969C14.4531 36.6852 14.7679 37 15.1562 37H34.8438C35.2321 37 35.5469 36.6852 35.5469 36.2969C35.5469 33.8515 34.5974 31.5409 32.8734 29.7904Z" fill="#4D4C52"/>
</svg>
