<svg width="50" height="50" viewBox="0 0 50 50" fill="none" xmlns="http://www.w3.org/2000/svg">
<rect width="50" height="50" rx="25" fill="#F8F8F8"/>
<g clip-path="url(#clip0_15_436)">
<path d="M34.8256 17.0202C34.6831 16.8492 34.4716 16.7502 34.2496 16.7502H16.6219L15.9694 14.3067C15.8824 13.9782 15.5854 13.7502 15.2449 13.7502H11.75C11.336 13.7502 11 14.0862 11 14.5002C11 14.9142 11.336 15.2502 11.75 15.2502H14.6689L15.3139 17.6667C15.3154 17.6757 15.3124 17.6847 15.3154 17.6952L17.7154 26.665C17.7154 26.6665 17.7169 26.6665 17.7169 26.668L18.5254 29.6935C18.6124 30.022 18.9094 30.25 19.2499 30.25H31.2497C31.6637 30.25 31.9997 29.914 31.9997 29.5C31.9997 29.086 31.6637 28.75 31.2497 28.75H19.8259L19.4044 27.172L32.7872 26.4985C33.1337 26.4805 33.4247 26.227 33.4876 25.8851L34.9876 17.6352C35.0281 17.4147 34.9681 17.1897 34.8256 17.0202ZM21.4998 23.5001C21.4998 23.9141 21.1638 24.2501 20.7498 24.2501C20.3359 24.2501 19.9999 23.9141 19.9999 23.5001V20.5001C19.9999 20.0861 20.3359 19.7502 20.7498 19.7502C21.1638 19.7502 21.4998 20.0861 21.4998 20.5001V23.5001ZM25.9998 23.5001C25.9998 23.9141 25.6638 24.2501 25.2498 24.2501C24.8358 24.2501 24.4998 23.9141 24.4998 23.5001V20.5001C24.4998 20.0861 24.8358 19.7502 25.2498 19.7502C25.6638 19.7502 25.9998 20.0861 25.9998 20.5001V23.5001ZM30.4997 23.5001C30.4997 23.9141 30.1637 24.2501 29.7497 24.2501C29.3357 24.2501 28.9997 23.9141 28.9997 23.5001V20.5001C28.9997 20.0861 29.3357 19.7502 29.7497 19.7502C30.1637 19.7502 30.4997 20.0861 30.4997 20.5001V23.5001Z" fill="#BE3A3A"/>
<path d="M20.75 36.2499C21.9926 36.2499 22.9999 35.2425 22.9999 33.9999C22.9999 32.7573 21.9926 31.7499 20.75 31.7499C19.5073 31.7499 18.5 32.7573 18.5 33.9999C18.5 35.2425 19.5073 36.2499 20.75 36.2499Z" fill="#BE3A3A"/>
<path d="M29.7495 36.2499C30.9921 36.2499 31.9994 35.2425 31.9994 33.9999C31.9994 32.7573 30.9921 31.7499 29.7495 31.7499C28.5069 31.7499 27.4995 32.7573 27.4995 33.9999C27.4995 35.2425 28.5069 36.2499 29.7495 36.2499Z" fill="#BE3A3A"/>
</g>
<defs>
<clipPath id="clip0_15_436">
<rect width="24" height="24" fill="white" transform="translate(11 13)"/>
</clipPath>
</defs>
</svg>
