<svg width="50" height="50" viewBox="0 0 50 50" fill="none" xmlns="http://www.w3.org/2000/svg">
<rect width="50" height="50" rx="25" fill="white"/>
<g clip-path="url(#clip0_47_1344)">
<path d="M35.0961 16.4021C33.8537 15.0546 32.149 14.3125 30.2956 14.3125C28.9102 14.3125 27.6415 14.7505 26.5245 15.6142C25.9609 16.0502 25.4503 16.5836 25 17.2061C24.5499 16.5837 24.0391 16.0502 23.4753 15.6142C22.3585 14.7505 21.0898 14.3125 19.7044 14.3125C17.851 14.3125 16.1461 15.0546 14.9037 16.4021C13.6762 17.7338 13 19.5532 13 21.5252C13 23.5549 13.7564 25.4129 15.3804 27.3725C16.8331 29.1254 18.9211 30.9048 21.339 32.9653C22.1646 33.6689 23.1005 34.4666 24.0722 35.3162C24.3289 35.541 24.6583 35.6648 25 35.6648C25.3415 35.6648 25.6711 35.541 25.9274 35.3165C26.8992 34.4667 27.8356 33.6688 28.6616 32.9647C31.0791 30.9046 33.1671 29.1254 34.6198 27.3723C36.2438 25.4129 37 23.5549 37 21.525C37 19.5532 36.3238 17.7338 35.0961 16.4021Z" fill="#4D4C52"/>
</g>
<defs>
<clipPath id="clip0_47_1344">
<rect width="24" height="24" fill="white" transform="translate(13 13)"/>
</clipPath>
</defs>
</svg>
