<svg width="14" height="18" viewBox="0 0 14 18" fill="none" xmlns="http://www.w3.org/2000/svg">
<path d="M6.99988 0C3.40532 0 0.480957 2.92437 0.480957 6.51888C0.480957 10.9798 6.31475 17.5287 6.56313 17.8053C6.79643 18.0651 7.20375 18.0647 7.43662 17.8053C7.685 17.5287 13.5188 10.9798 13.5188 6.51888C13.5187 2.92437 10.5944 0 6.99988 0ZM6.99988 9.79871C5.19137 9.79871 3.72008 8.32739 3.72008 6.51888C3.72008 4.71037 5.1914 3.23909 6.99988 3.23909C8.80835 3.23909 10.2796 4.71041 10.2796 6.51892C10.2796 8.32743 8.80835 9.79871 6.99988 9.79871Z" fill="#4D4C52"/>
</svg>
