<svg width="36" height="36" viewBox="0 0 36 36" fill="none" xmlns="http://www.w3.org/2000/svg">
<rect width="36" height="36" rx="18" fill="#F8F8F8"/>
<path d="M5.60672 17.44V22H4.22672V14.9H5.32672L8.99672 19.58V14.91H10.3767V22H9.22672L5.60672 17.44ZM17.3837 20.79V22H12.4537V14.9H17.2937V16.11H13.8337V17.82H16.8237V18.94H13.8337V20.79H17.3837ZM21.4895 14.92H22.7695L23.5795 17.27L24.3995 14.92H25.6695L24.4495 18.15L25.3495 20.41L27.3595 14.9H28.8595L26.0195 22H24.8295L23.5795 19.02L22.3395 22H21.1495L18.3195 14.9H19.7995L21.8195 20.41L22.6995 18.15L21.4895 14.92ZM30.3169 19.33V14.83H31.6569V19.33H30.3169ZM30.3169 22V20.49H31.6569V22H30.3169Z" fill="#BE3A3A"/>
</svg>
