<svg width="36" height="36" viewBox="0 0 36 36" fill="none" xmlns="http://www.w3.org/2000/svg">
<rect width="36" height="36" rx="18" fill="#BE3A3A"/>
<path d="M11.7641 14.9V22H10.3941V18.97H7.1741V22H5.7941V14.9H7.1741V17.77H10.3941V14.9H11.7641ZM16.8753 22.05C16.3553 22.05 15.8819 21.95 15.4553 21.75C15.0353 21.55 14.6719 21.28 14.3653 20.94C14.0653 20.5933 13.8319 20.2067 13.6653 19.78C13.4986 19.3467 13.4153 18.9033 13.4153 18.45C13.4153 17.9767 13.5019 17.5267 13.6753 17.1C13.8553 16.6667 14.0986 16.2833 14.4053 15.95C14.7186 15.61 15.0853 15.3433 15.5053 15.15C15.9319 14.95 16.3986 14.85 16.9053 14.85C17.4186 14.85 17.8853 14.9533 18.3053 15.16C18.7319 15.3667 19.0953 15.6433 19.3953 15.99C19.6953 16.3367 19.9286 16.7233 20.0953 17.15C20.2619 17.5767 20.3453 18.0167 20.3453 18.47C20.3453 18.9367 20.2586 19.3867 20.0853 19.82C19.9119 20.2467 19.6686 20.63 19.3553 20.97C19.0486 21.3033 18.6819 21.5667 18.2553 21.76C17.8353 21.9533 17.3753 22.05 16.8753 22.05ZM14.8153 18.45C14.8153 18.7567 14.8619 19.0533 14.9553 19.34C15.0486 19.6267 15.1819 19.8833 15.3553 20.11C15.5353 20.33 15.7519 20.5067 16.0053 20.64C16.2653 20.7667 16.5586 20.83 16.8853 20.83C17.2186 20.83 17.5153 20.7633 17.7753 20.63C18.0353 20.49 18.2519 20.3067 18.4253 20.08C18.5986 19.8467 18.7286 19.59 18.8153 19.31C18.9086 19.0233 18.9553 18.7367 18.9553 18.45C18.9553 18.1433 18.9053 17.85 18.8053 17.57C18.7119 17.2833 18.5753 17.03 18.3953 16.81C18.2219 16.5833 18.0053 16.4067 17.7453 16.28C17.4919 16.1467 17.2053 16.08 16.8853 16.08C16.5453 16.08 16.2453 16.15 15.9853 16.29C15.7319 16.4233 15.5186 16.6033 15.3453 16.83C15.1719 17.0567 15.0386 17.31 14.9453 17.59C14.8586 17.87 14.8153 18.1567 14.8153 18.45ZM27.1381 16.11H24.8681V22H23.4981V16.11H21.2281V14.9H27.1381V16.11ZM28.7495 19.33V14.83H30.0895V19.33H28.7495ZM28.7495 22V20.49H30.0895V22H28.7495Z" fill="#F8F8F8"/>
</svg>
