<svg width="20" height="20" viewBox="0 0 20 20" fill="none" xmlns="http://www.w3.org/2000/svg">
<g clip-path="url(#clip0_4_407)">
<path d="M20 9.99994C20 4.47709 15.5228 6.44584e-05 9.99994 6.39756e-05C4.47709 6.34928e-05 6.62069e-05 4.47709 6.57241e-05 9.99993C6.52413e-05 15.5228 4.47709 20 9.99994 20C15.5228 20 20 15.5228 20 9.99994V9.99994ZM11.1631 14.158L6.95268 10.4737C6.81564 10.3544 6.7368 10.1817 6.7368 9.99993C6.7368 9.81837 6.81564 9.64548 6.95268 9.52637L11.1631 5.84209C11.4247 5.61254 11.8231 5.63836 12.0526 5.89992C12.2822 6.16166 12.2564 6.55987 11.9948 6.78942L8.32635 9.99994L11.9948 13.2104C12.2564 13.4402 12.2822 13.8384 12.0526 14.1C11.8231 14.3617 11.4247 14.3875 11.1631 14.158Z" fill="#D6A151"/>
</g>
<defs>
<clipPath id="clip0_4_407">
<rect width="20" height="20" fill="white" transform="translate(20 20) rotate(-180)"/>
</clipPath>
</defs>
</svg>
