<svg width="20" height="20" viewBox="0 0 20 20" fill="none" xmlns="http://www.w3.org/2000/svg">
<path d="M0 10.0001C0 15.5229 4.47722 19.9999 10.0001 19.9999C15.5229 19.9999 19.9999 15.5229 19.9999 10.0001C19.9999 4.47722 15.5229 0 10.0001 0C4.47722 0 0 4.47722 0 10.0001H0ZM8.83686 5.84203L13.0473 9.5263C13.1844 9.64561 13.2632 9.81831 13.2632 10.0001C13.2632 10.1816 13.1844 10.3545 13.0473 10.4736L8.83686 14.1579C8.57531 14.3875 8.17691 14.3616 7.94736 14.1001C7.7178 13.8383 7.74363 13.4401 8.00518 13.2106L11.6736 10.0001L8.00518 6.78955C7.74363 6.5598 7.7178 6.1616 7.94736 5.90004C8.17691 5.6383 8.57531 5.61247 8.83686 5.84203Z" fill="#D6A151"/>
</svg>
