<svg width="270" height="40" viewBox="0 0 270 40" fill="none" xmlns="http://www.w3.org/2000/svg">
<path d="M41.853 19.5081C41.061 18.7155 39.811 18.0394 38.6774 17.9228C38.3358 17.8063 38.1106 17.8063 38.1106 17.8063L37.6603 17.5809L37.6525 17.5887C37.2954 15.8559 36.682 14.2085 35.8202 12.6777C36.5811 13.3926 37.4584 13.9987 38.3435 14.4105C39.3607 14.8612 39.4771 14.6359 38.9103 13.6179C38.0019 12.3746 36.418 11.1236 35.0593 10.5563C34.6478 10.3543 34.4226 10.2377 34.213 10.3076C34.112 10.1833 34.0033 10.059 33.9024 9.94242L34.1509 9.88026C35.2844 9.53835 36.5345 9.65491 37.6681 9.65491C36.5345 9.77147 35.2844 10.1056 34.1509 9.88026C34.2673 9.99682 34.376 10.1056 34.7176 10.1056C35.8512 10.4475 37.21 10.331 38.2348 9.98905C39.0268 9.7637 39.0268 9.53835 38.2348 9.313C37.2177 9.08765 35.7425 9.19644 34.7176 9.53835C34.376 9.65491 34.2673 9.7637 34.1509 9.7637H33.7471C33.5375 9.52281 33.3201 9.28969 33.0949 9.06434C32.1011 8.06193 30.9986 7.19939 29.8107 6.4845C30.7812 6.68653 31.7828 6.77201 32.6757 6.70985C33.8092 6.4845 33.8092 6.25915 32.7921 5.80068C31.4334 5.12464 29.3914 4.78273 27.9162 4.89152C27.4581 4.98477 27.2252 5.07802 27.0932 5.16349C26.9301 5.10133 26.7593 5.03916 26.5963 4.98477L26.7904 4.89152C27.5823 3.98236 28.7159 3.53166 29.7408 2.85562C28.7237 3.53166 27.9239 4.44082 26.7904 4.89152C26.9068 4.89152 27.132 4.89152 27.3572 4.77496C28.4907 4.43305 29.6243 3.75701 30.4163 2.84785C30.9831 2.28059 30.8666 2.1718 30.0746 2.39715C29.0575 2.6225 27.8075 3.4151 27.1242 4.20771C26.8991 4.54961 26.7826 4.6584 26.7826 4.77496L26.4565 4.93814C24.8416 4.40197 23.1334 4.11446 21.3787 4.09115C22.2871 3.78809 23.149 3.35294 23.84 2.84785C24.7484 2.1718 24.6319 1.93869 23.4983 1.93869C22.0231 2.05524 20.0976 2.84785 18.8476 3.74924C18.5059 3.97459 18.2808 4.19994 18.2808 4.31649C18.1333 4.33981 17.9935 4.36312 17.846 4.3942L17.9392 4.20771C18.0556 4.20771 18.1643 4.09115 18.3895 3.8658C19.1814 2.95664 19.8647 1.8299 20.0898 0.695387C20.2063 -0.0972165 20.0898 -0.213776 19.5231 0.353479C18.7311 1.14608 18.0479 2.50594 17.8227 3.52389C17.8227 3.8658 17.8227 4.09115 17.8227 4.09115L17.6519 4.43305C15.9438 4.78273 14.3133 5.39661 12.807 6.25138C13.4514 5.52094 13.9872 4.69726 14.3055 3.87357C14.7558 2.85562 14.5307 2.73906 13.6222 3.30631C12.38 4.21548 11.0212 5.80068 10.4544 7.16054C10.3457 7.5957 10.237 7.92983 10.2293 8.05416C10.1128 8.15518 10.0041 8.24843 9.88766 8.34945V8.0697C9.43733 7.05175 9.66249 5.69189 9.66249 4.55738C9.77896 5.69189 10.1128 6.93519 9.88766 8.0697C10.0041 8.0697 10.0041 7.84436 10.1128 7.50245C10.4544 6.36794 10.338 5.00808 9.99635 3.99013C9.77119 3.19753 9.54603 3.19753 9.3131 3.99013C9.08794 5.00808 9.08794 6.4845 9.53827 7.50245C9.53827 7.84436 9.65473 8.0697 9.76343 8.0697V8.45046C9.54603 8.6525 9.32863 8.85454 9.119 9.06434C8.06306 10.1289 7.17018 11.3178 6.44034 12.5922C6.65774 11.5976 6.72762 10.5485 6.58786 9.53835C6.4714 8.5204 6.24624 8.40384 5.79591 9.42179C5.11266 10.7816 4.7788 12.8176 4.8875 14.4028C5.00396 14.8535 5.11266 15.0788 5.11266 15.1954L5.03502 15.7238L4.8875 15.4207C4.8875 15.3041 4.8875 15.1954 4.77103 14.8535C4.42941 13.7189 3.75392 12.5844 2.8455 11.7918C2.27872 11.3411 2.16225 11.4499 2.39518 12.1337C2.62034 13.2682 3.41229 14.4028 4.21201 15.1954C4.55363 15.4207 4.66233 15.5373 4.7788 15.5373L4.98067 15.9413C4.46823 17.5809 4.20424 19.306 4.20424 21.0777C4.20424 21.1321 4.20424 21.1787 4.20424 21.2331C3.88591 20.1686 3.38124 19.1506 2.73681 18.3658C2.17002 17.4566 1.94485 17.5732 1.94485 18.7077C2.06132 20.2929 2.73681 22.1034 3.76168 23.3545C3.98685 23.8052 4.21201 23.9218 4.32847 24.0306L4.48376 24.5046L4.21201 24.3647C3.07843 24.1393 2.06132 23.3467 1.03644 22.7795C2.05355 23.3467 3.30359 23.5721 4.21201 24.3647C4.21201 24.2481 4.09554 24.0228 3.87038 23.914C2.96197 23.0048 1.82839 22.4453 0.694814 22.2122C-0.0971368 22.0957 -0.2136 22.2122 0.353189 22.7795C1.14514 23.5721 2.39518 24.2481 3.52876 24.3647C3.87038 24.4812 4.09554 24.4812 4.09554 24.4812L4.54587 24.7066L4.58469 24.6677C4.98067 26.5171 5.68721 28.2655 6.64221 29.8507C5.82697 29.0271 4.84867 28.3277 3.87038 27.877C2.85327 27.4263 2.73681 27.6517 3.30359 28.6696C4.21201 29.9129 5.79591 31.164 7.15465 31.7312C7.60498 31.9566 7.8379 32.0731 8.06306 31.9566C6.58786 31.2805 5.45428 29.9207 4.21201 28.7862C5.46205 29.8041 7.04595 30.5967 8.06306 31.9566L8.36587 32.3373L8.06306 32.4151C6.92949 32.757 5.67945 32.6404 4.54587 32.6404C5.67945 32.5238 6.92949 32.1897 8.06306 32.4151C7.9466 32.2985 7.8379 32.1897 7.49628 32.1897C6.3627 31.8478 5.00396 31.9644 3.97908 32.3063C3.18713 32.5316 3.18713 32.757 3.97908 32.9823C4.99619 33.2077 6.4714 33.0989 7.49628 32.757C7.8379 32.6404 7.9466 32.5316 8.06306 32.5316H8.51339L8.58327 32.4617C9.87213 33.8837 11.4172 35.0804 13.1564 35.9973C11.9685 35.6554 10.6641 35.5078 9.5305 35.5855C8.39692 35.8108 8.39692 36.0362 9.41404 36.4946C10.7728 37.1707 12.8148 37.5126 14.29 37.4038C14.8568 37.2872 15.0819 37.1784 15.1984 37.0619C13.6145 37.1784 11.9141 36.6112 10.3225 36.2693C11.9064 36.4946 13.7232 36.3858 15.1984 37.0619L15.7419 37.2406L15.4235 37.396C14.6316 38.3052 13.498 38.7559 12.4731 39.4319C13.4903 38.7559 14.29 37.8467 15.4235 37.396C15.3071 37.396 15.0819 37.396 14.8568 37.5126C13.7232 37.8545 12.5896 38.5305 11.7977 39.4397C11.2309 40.0069 11.3473 40.1157 12.1393 39.8904C13.1564 39.665 14.4064 38.8724 15.0897 38.0798C15.3148 37.7379 15.4313 37.6291 15.4313 37.5126C15.4313 37.4893 15.8428 37.2872 15.8894 37.2795C16.0214 37.2484 16.2 37.3105 16.3397 37.3105C16.495 37.3105 16.6425 37.2795 16.7668 37.194C16.9686 37.0463 17.0851 36.8054 17.0851 36.5568C17.0851 36.549 17.0851 23.6809 17.0851 23.6809C17.0851 23.2613 16.7823 22.9194 16.3708 22.9194C15.9826 22.9194 15.6798 23.269 15.6798 23.6809L15.54 35.8186C9.4218 33.5029 5.35335 27.6672 5.35335 21.0855C5.35335 12.3435 12.4188 5.23343 21.107 5.23343C29.7951 5.23343 36.8683 12.3435 36.8683 21.0855C36.8683 27.6827 32.7067 33.604 26.5031 35.8652L26.5342 23.6731C26.5342 23.2535 26.2081 22.9116 25.8198 22.9116C25.4316 22.9116 25.1055 23.2613 25.1055 23.6731V36.549C25.1055 36.9686 25.4316 37.3105 25.8198 37.3105C26.1149 37.3105 26.3944 37.124 26.6739 37.023C26.837 36.9686 27.0078 36.9065 27.1708 36.8443C27.4969 36.72 27.8153 36.5879 28.1336 36.4402C28.7625 36.1527 29.3681 35.8264 29.9582 35.4689C29.0731 36.3159 28.3199 37.3572 27.9162 38.4062C27.4659 39.4241 27.691 39.5407 28.5994 38.9734C29.8495 38.0643 31.2082 36.4791 31.775 35.1192C31.8915 34.6685 32.0002 34.3266 32.0002 34.2101L32.3418 33.7827V34.2101C32.7921 35.228 32.567 36.5879 32.567 37.7224C32.4505 36.5879 32.1166 35.3446 32.3418 34.2101C32.2253 34.2101 32.2253 34.4354 32.1166 34.7773C31.775 35.9118 31.8915 37.2717 32.2331 38.2896C32.4583 39.0822 32.6834 39.0822 32.9163 38.2896C33.1415 37.2717 33.1415 35.7953 32.6912 34.7773C32.6912 34.4354 32.5747 34.2101 32.466 34.2101V33.6428H32.4117C33.8015 32.3995 34.9661 30.9386 35.8745 29.3146C35.5872 30.418 35.4863 31.5991 35.6338 32.7336C35.7503 33.7516 35.9755 33.8682 36.4258 32.8502C37.109 31.4903 37.4429 29.4544 37.3342 27.8692C37.2177 27.4185 37.109 27.1932 37.109 27.0766L37.1867 26.5482L37.3342 26.8513C37.3342 26.9678 37.3342 27.0766 37.4507 27.4185C37.7923 28.5531 38.4678 29.6876 39.3762 30.4802C39.943 30.9309 40.0594 30.8221 39.8265 30.1383C39.6013 29.0037 38.8094 27.8692 38.0097 27.0766C37.668 26.8513 37.5594 26.7347 37.4429 26.7347L37.2177 26.284H37.1867C37.7224 24.6289 38.0097 22.8727 38.0097 21.0699C38.0097 21.0622 38.0097 21.0544 38.0097 21.0466C38.328 22.1112 38.8327 23.1214 39.4771 23.9062C40.0439 24.8154 40.2691 24.6988 40.2691 23.5643C40.1526 21.9791 39.4771 20.1686 38.4522 18.9175C38.2271 18.4668 38.0019 18.3502 37.8854 18.2414L37.7302 17.7674L38.0019 17.8995C39.1355 18.1249 40.1526 18.9175 41.1775 19.4847C40.1604 18.9175 38.9103 18.6921 38.0019 17.8995C38.0019 18.0161 38.1184 18.2414 38.3435 18.3502C39.252 19.2594 40.3855 19.8189 41.5191 20.052C42.3111 20.1841 42.4198 20.0753 41.853 19.5081ZM19.4144 1.04506C18.964 2.06302 18.6224 3.31408 17.8305 4.21548C18.0479 3.08097 18.9563 2.06302 19.4144 1.04506ZM2.86103 12.4834C3.54428 13.5014 4.44493 14.4105 4.90302 15.545C3.99461 14.7524 3.54428 13.5014 2.86103 12.4834ZM39.3607 29.8119C38.6774 28.7939 37.7768 27.8848 37.3187 26.7503C38.2271 27.5506 38.6774 28.7939 39.3607 29.8119ZM38.0019 13.5014C36.9848 12.6699 35.7425 11.9861 34.7642 11.0303C34.6089 10.8127 34.4459 10.6029 34.2751 10.3931C35.6882 11.0925 36.7907 12.4057 38.0019 13.5014ZM31.8759 6.02603C30.6725 5.85508 29.3448 5.87839 28.1336 5.60642C27.8385 5.46655 27.5357 5.34222 27.2252 5.22566C28.747 5.17903 30.3619 5.70744 31.8759 6.02603ZM22.9238 2.63027C21.6893 3.0732 20.5246 3.78032 19.3212 4.18439C19.0339 4.21548 18.7544 4.25433 18.4671 4.29318C19.7094 3.39956 21.4175 3.16644 22.9238 2.63027ZM13.4049 4.21548C12.6517 5.14018 12.0151 6.30577 11.2309 7.26933C10.9746 7.45582 10.7262 7.64232 10.4777 7.84436C11.1222 6.4301 12.4576 5.3733 13.4049 4.21548ZM6.0366 10.331C5.85026 11.6364 5.88908 13.0895 5.53969 14.4494C5.43099 14.7058 5.33006 14.9622 5.23689 15.2264C5.04278 13.5558 5.70274 11.8928 6.0366 10.331ZM2.63587 19.2827C3.20266 20.8679 4.21977 22.3443 4.4527 24.0383C3.42782 22.6785 3.20266 20.8679 2.63587 19.2827ZM4.4527 23.9218C4.4527 23.9295 4.4527 23.9295 4.4527 23.9373V23.9218ZM28.8168 38.0798C29.834 36.8365 30.6337 35.1348 31.8759 34.1168C31.8682 34.1168 31.8682 34.1168 31.8604 34.1168C31.8759 34.109 31.8837 34.0935 31.8992 34.0857L31.8759 34.1168C31.3092 35.702 29.8417 36.8365 28.8168 38.0798ZM36.1851 31.9644C36.4102 30.3791 36.3015 28.5686 36.977 26.9834C37.21 28.6774 36.5267 30.3791 36.1851 31.9644ZM39.5858 23.0204C39.0578 21.544 38.1339 20.1608 37.8311 18.6067C37.8156 18.4901 37.7923 18.3813 37.7767 18.2648C38.7939 19.6246 39.019 21.4352 39.5858 23.0204Z" fill="#D6A151"/>
<path d="M10.8583 19.2749H31.3481C31.9304 19.2749 32.4351 19.5314 32.8 19.9199C33.1649 20.3162 33.4056 20.8679 33.4056 21.474C33.4056 22.0801 33.1649 22.6318 32.8 23.0281C32.4351 23.4244 31.9304 23.6498 31.3481 23.6498C30.7813 23.6498 30.2844 23.4167 29.9195 23.0281L29.8729 22.9815C29.5235 22.5852 29.3061 22.0568 29.3061 21.474C29.3061 21.0544 28.98 20.7125 28.5918 20.7125C28.2036 20.7125 27.8775 21.0622 27.8775 21.474C27.8775 22.4686 28.2657 23.37 28.8558 24.0461L28.9024 24.0927C29.5313 24.761 30.4009 25.1806 31.3559 25.1806C32.3342 25.1806 33.196 24.761 33.8249 24.0927C34.4538 23.4244 34.842 22.492 34.842 21.474C34.842 20.4561 34.4538 19.5314 33.8249 18.8553C33.196 18.187 32.3264 17.7674 31.3559 17.7674H10.8583C9.9033 17.7674 9.03371 18.187 8.40481 18.8553C7.7759 19.5236 7.3877 20.4561 7.3877 21.474C7.3877 22.492 7.7759 23.4167 8.40481 24.0927C9.03371 24.761 9.9033 25.1806 10.8583 25.1806C11.8133 25.1806 12.6829 24.761 13.3118 24.0927C13.9407 23.4244 14.3289 22.492 14.3289 21.474C14.3289 21.0544 14.0028 20.7125 13.6146 20.7125C13.2264 20.7125 12.9236 21.0622 12.9236 21.474C12.9236 22.0723 12.6829 22.6318 12.318 23.0281C11.9531 23.4244 11.4251 23.6498 10.8661 23.6498C10.307 23.6498 9.77907 23.4167 9.41416 23.0281C9.04924 22.6318 8.80855 22.0801 8.80855 21.474C8.80855 20.8679 9.04924 20.3162 9.41416 19.9199C9.77131 19.5314 10.2915 19.2749 10.8583 19.2749Z" fill="#D6A151"/>
<path d="M21.1069 22.9116C20.7187 22.9116 20.3926 23.2612 20.3926 23.6731V36.3858C20.3926 36.8054 20.7187 37.1473 21.1069 37.1473C21.4951 37.1473 21.8212 36.7977 21.8212 36.3858V23.6731C21.829 23.2612 21.5029 22.9116 21.1069 22.9116Z" fill="#D6A151"/>
<path d="M52.8726 29.5276H54.2232V14.7528H70.9053V29.5276H72.2797V9.29819H52.8726V29.5276Z" fill="#4D4C52"/>
<path d="M76.7584 26.1363V9.27448H75.4077V29.5039H80.7156L95.1703 12.6421V29.5039H96.5447V9.27448H91.2367L76.7584 26.1363Z" fill="#4D4C52"/>
<path d="M119.008 9.27448H98.8428V14.7291H108.226V29.5039H109.577V14.7291H119.008V9.27448Z" fill="#4D4C52"/>
<path d="M126.52 9.27448L116.757 29.5039H122.539L125.904 22.4604H136.733L140.027 29.5039H141.52L132.041 9.27448H126.52ZM136.093 21.1323H126.568L131.402 11.1243L136.093 21.1323Z" fill="#4D4C52"/>
<path d="M170.31 22.2944L170.357 22.0572L169.03 21.7726L168.936 21.9386C168.533 22.6264 167.751 23.1955 166.613 23.5987L157.893 14.7291H168.983V9.27448H151.969V10.6974L158.32 17.1243C156.78 17.3141 155.31 17.7172 153.936 18.3339C152.325 19.0453 151.519 20.1362 151.519 21.5829C151.519 22.5078 151.851 23.6461 152.514 24.9505C153.178 26.2786 154.197 27.4407 155.571 28.413C156.945 29.4091 158.652 29.9071 160.689 29.9071C162.324 29.9071 163.746 29.6225 164.931 29.1007C166.021 28.6027 167.04 27.8438 167.964 26.8715L170.547 29.5039H172.466L168.865 25.8043C169.599 24.6896 170.097 23.5039 170.31 22.2944ZM165.121 24.0256C163.77 24.3339 162.277 24.4999 160.618 24.4999C159.386 24.4999 158.13 24.3813 156.922 24.1442C155.713 23.907 154.694 23.5513 153.889 23.0533C153.13 22.6027 152.775 22.0809 152.775 21.4406C152.775 20.6105 153.438 19.8991 154.765 19.3536C156.14 18.7844 157.727 18.4524 159.528 18.3339L165.121 24.0256Z" fill="#4D4C52"/>
<path d="M183.32 29.5039H184.647V14.7528H199.789V9.29819H183.32V29.5039Z" fill="#4D4C52"/>
<path d="M204.101 26.1363V9.27448H202.75V29.5039H208.058L222.513 12.6421V29.5039H223.887V9.27448H218.58L204.101 26.1363Z" fill="#4D4C52"/>
<path d="M242.655 10.0571C241.541 9.53534 239.764 9.27448 237.37 9.27448H227.015V29.5039H228.39V21.2272H240.498C241.328 21.2272 242.11 21.0611 242.797 20.7291C243.508 20.3971 244.1 19.8991 244.527 19.2825C244.953 18.6659 245.19 17.9544 245.19 17.1718V15.8674C245.19 14.3022 245.048 13.069 244.787 12.2152C244.527 11.314 243.816 10.6025 242.655 10.0571ZM243.839 17.2429C243.839 18.073 243.508 18.7133 242.868 19.1639C242.181 19.6382 241.399 19.8754 240.522 19.8754H228.413V14.7291H239.882C241.043 14.7291 242.038 14.9425 242.797 15.3694C243.484 15.7488 243.839 16.3654 243.839 17.2429Z" fill="#4D4C52"/>
<path d="M268.578 14.1125C267.631 12.5235 266.327 11.2192 264.692 10.2942C263.057 9.34562 261.209 8.87131 259.218 8.87131H258.152C256.138 8.87131 254.29 9.34562 252.655 10.2942C251.02 11.2429 249.693 12.5235 248.768 14.1125C247.821 15.7014 247.347 17.4801 247.347 19.4011C247.347 21.322 247.821 23.1007 248.768 24.7134C249.716 26.3023 251.02 27.6067 252.655 28.5316C254.29 29.4802 256.162 29.9545 258.152 29.9545H259.218C261.209 29.9545 263.034 29.4802 264.692 28.5316C266.327 27.583 267.631 26.3023 268.578 24.7134C269.526 23.1007 270 21.322 270 19.4011C270 17.5038 269.526 15.7251 268.578 14.1125ZM259.432 24.4762H257.915C256.233 24.4762 254.645 24.239 253.2 23.7647C251.778 23.2904 250.617 22.6738 249.787 21.8912C248.982 21.1086 248.579 20.3023 248.579 19.4011C248.579 18.5236 248.982 17.6935 249.787 16.9346C250.617 16.152 251.754 15.5117 253.2 15.0611C254.645 14.5868 256.233 14.3496 257.915 14.3496H259.432C261.114 14.3496 262.702 14.5868 264.124 15.0611C265.545 15.5354 266.683 16.152 267.512 16.9346C268.318 17.7172 268.721 18.5236 268.721 19.4011C268.721 20.3023 268.318 21.1323 267.512 21.8912C266.683 22.6738 265.545 23.3141 264.124 23.7647C262.702 24.239 261.138 24.4762 259.432 24.4762Z" fill="#4D4C52"/>
</svg>
